<svg width="50" height="50" viewBox="0 0 50 50" fill="none" xmlns="http://www.w3.org/2000/svg">
<g clip-path="url(#clip0_43_3)">
<path d="M48.5938 8.42773C50.5156 7.1875 50.4687 5.21484 48.4844 4.01367C46.5 2.8125 43.3438 2.8418 41.4219 4.08203L17.1719 19.707L10 24.3164V6.25C10 4.52148 7.76563 3.125 5 3.125C2.23437 3.125 0 4.52148 0 6.25V43.75C0 45.4785 2.23437 46.875 5 46.875C7.76563 46.875 10 45.4785 10 43.75V33.3008L20.1094 26.7871L40.8906 45.5371C42.4688 46.9531 45.5781 47.3047 47.8438 46.3281C50.1094 45.3516 50.6719 43.3984 49.1094 41.9824L27.2031 22.207L48.5938 8.42773Z" fill="black"/>
</g>
<defs>
<clipPath id="clip0_43_3">
<rect width="50" height="50" fill="white"/>
</clipPath>
</defs>
</svg>
